<mxfile host="app.diagrams.net" modified="2023-10-02T12:39:03.260Z" agent="Mozilla/5.0 (Windows NT 10.0; Win64; x64) AppleWebKit/537.36 (KHTML, like Gecko) Chrome/117.0.0.0 Safari/537.36" etag="IY-e0MJ1BKjGjwOItwLF" version="22.0.0" type="device">
  <diagram name="Pagina-1" id="B3OWO61S2Mb4ZErknKLk">
    <mxGraphModel dx="536" dy="1572" grid="1" gridSize="10" guides="1" tooltips="1" connect="1" arrows="1" fold="1" page="1" pageScale="1" pageWidth="827" pageHeight="1169" math="0" shadow="0">
      <root>
        <mxCell id="0" />
        <mxCell id="1" parent="0" />
        <mxCell id="xr0yzaJ5rrApT33WDaht-1" value="" style="rounded=0;whiteSpace=wrap;html=1;" vertex="1" parent="1">
          <mxGeometry x="330" y="160" width="120" height="60" as="geometry" />
        </mxCell>
        <mxCell id="xr0yzaJ5rrApT33WDaht-2" value="ESP32" style="text;html=1;strokeColor=none;fillColor=none;align=center;verticalAlign=middle;whiteSpace=wrap;rounded=0;" vertex="1" parent="1">
          <mxGeometry x="360" y="170" width="60" height="30" as="geometry" />
        </mxCell>
        <mxCell id="xr0yzaJ5rrApT33WDaht-3" value="" style="endArrow=none;html=1;rounded=0;exitX=0.25;exitY=0;exitDx=0;exitDy=0;" edge="1" parent="1" source="xr0yzaJ5rrApT33WDaht-1">
          <mxGeometry width="50" height="50" relative="1" as="geometry">
            <mxPoint x="320" y="290" as="sourcePoint" />
            <mxPoint x="360" y="140" as="targetPoint" />
          </mxGeometry>
        </mxCell>
        <mxCell id="xr0yzaJ5rrApT33WDaht-4" value="Pin G35" style="text;html=1;align=center;verticalAlign=middle;resizable=0;points=[];autosize=1;strokeColor=none;fillColor=none;" vertex="1" parent="1">
          <mxGeometry x="355" y="130" width="70" height="30" as="geometry" />
        </mxCell>
        <mxCell id="xr0yzaJ5rrApT33WDaht-16" style="edgeStyle=orthogonalEdgeStyle;rounded=0;orthogonalLoop=1;jettySize=auto;html=1;exitX=0.5;exitY=0;exitDx=0;exitDy=0;exitPerimeter=0;entryX=0;entryY=0;entryDx=0;entryDy=0;" edge="1" parent="1" source="xr0yzaJ5rrApT33WDaht-7" target="xr0yzaJ5rrApT33WDaht-14">
          <mxGeometry relative="1" as="geometry" />
        </mxCell>
        <mxCell id="xr0yzaJ5rrApT33WDaht-7" value="V&lt;sub&gt;dd&lt;/sub&gt;" style="verticalLabelPosition=top;verticalAlign=bottom;shape=mxgraph.electrical.signal_sources.vdd;shadow=0;dashed=0;align=center;strokeWidth=1;fontSize=24;html=1;flipV=1;" vertex="1" parent="1">
          <mxGeometry x="150" y="30" width="60" height="40" as="geometry" />
        </mxCell>
        <mxCell id="xr0yzaJ5rrApT33WDaht-15" style="edgeStyle=orthogonalEdgeStyle;rounded=0;orthogonalLoop=1;jettySize=auto;html=1;exitX=0.5;exitY=0;exitDx=0;exitDy=0;exitPerimeter=0;entryX=0.5;entryY=0;entryDx=0;entryDy=0;" edge="1" parent="1" source="xr0yzaJ5rrApT33WDaht-8" target="xr0yzaJ5rrApT33WDaht-14">
          <mxGeometry relative="1" as="geometry" />
        </mxCell>
        <mxCell id="xr0yzaJ5rrApT33WDaht-17" style="edgeStyle=orthogonalEdgeStyle;rounded=0;orthogonalLoop=1;jettySize=auto;html=1;" edge="1" parent="1">
          <mxGeometry relative="1" as="geometry">
            <mxPoint x="310" y="190" as="targetPoint" />
            <mxPoint x="253" y="80" as="sourcePoint" />
          </mxGeometry>
        </mxCell>
        <mxCell id="xr0yzaJ5rrApT33WDaht-8" value="" style="pointerEvents=1;verticalLabelPosition=bottom;shadow=0;dashed=0;align=center;html=1;verticalAlign=top;shape=mxgraph.electrical.signal_sources.signal_ground;rotation=-180;" vertex="1" parent="1">
          <mxGeometry x="230" y="30" width="45" height="30" as="geometry" />
        </mxCell>
        <mxCell id="xr0yzaJ5rrApT33WDaht-9" value="" style="endArrow=none;html=1;rounded=0;exitX=0;exitY=0.5;exitDx=0;exitDy=0;" edge="1" parent="1" source="xr0yzaJ5rrApT33WDaht-1">
          <mxGeometry width="50" height="50" relative="1" as="geometry">
            <mxPoint x="360" y="120" as="sourcePoint" />
            <mxPoint x="310" y="190" as="targetPoint" />
          </mxGeometry>
        </mxCell>
        <mxCell id="xr0yzaJ5rrApT33WDaht-10" value="GND" style="text;html=1;align=center;verticalAlign=middle;resizable=0;points=[];autosize=1;strokeColor=none;fillColor=none;" vertex="1" parent="1">
          <mxGeometry x="290" y="190" width="50" height="30" as="geometry" />
        </mxCell>
        <mxCell id="xr0yzaJ5rrApT33WDaht-11" value="Led strip" style="shape=tape;whiteSpace=wrap;html=1;rotation=90;" vertex="1" parent="1">
          <mxGeometry x="70" y="180" width="250" height="100" as="geometry" />
        </mxCell>
        <mxCell id="xr0yzaJ5rrApT33WDaht-13" value="24V" style="text;html=1;strokeColor=none;fillColor=none;align=center;verticalAlign=middle;whiteSpace=wrap;rounded=0;" vertex="1" parent="1">
          <mxGeometry x="150" y="100" width="60" height="30" as="geometry" />
        </mxCell>
        <mxCell id="xr0yzaJ5rrApT33WDaht-14" value="GND" style="text;html=1;strokeColor=none;fillColor=none;align=center;verticalAlign=middle;whiteSpace=wrap;rounded=0;" vertex="1" parent="1">
          <mxGeometry x="180" y="100" width="60" height="30" as="geometry" />
        </mxCell>
        <mxCell id="xr0yzaJ5rrApT33WDaht-18" value="GND" style="text;html=1;align=center;verticalAlign=middle;resizable=0;points=[];autosize=1;strokeColor=none;fillColor=none;" vertex="1" parent="1">
          <mxGeometry x="230" width="50" height="30" as="geometry" />
        </mxCell>
        <mxCell id="xr0yzaJ5rrApT33WDaht-19" value="DIN" style="text;html=1;strokeColor=none;fillColor=none;align=center;verticalAlign=middle;whiteSpace=wrap;rounded=0;" vertex="1" parent="1">
          <mxGeometry x="165" y="130" width="60" height="30" as="geometry" />
        </mxCell>
        <mxCell id="xr0yzaJ5rrApT33WDaht-20" value="" style="endArrow=none;html=1;rounded=0;exitX=0.145;exitY=0.326;exitDx=0;exitDy=0;exitPerimeter=0;" edge="1" parent="1" source="xr0yzaJ5rrApT33WDaht-11">
          <mxGeometry width="50" height="50" relative="1" as="geometry">
            <mxPoint x="360" y="150" as="sourcePoint" />
            <mxPoint x="360" y="140" as="targetPoint" />
          </mxGeometry>
        </mxCell>
      </root>
    </mxGraphModel>
  </diagram>
</mxfile>
